<svg width="141" height="38" viewBox="0 0 141 38" fill="none" xmlns="http://www.w3.org/2000/svg">
<g clip-path="url(#clip0_8324_90422)">
<g clip-path="url(#clip1_8324_90422)">
<path d="M0 4.75C0 2.12665 2.12665 0 4.75 0H33.25C35.8734 0 38 2.12665 38 4.75V33.25C38 35.8734 35.8734 38 33.25 38H4.75C2.12665 38 0 35.8734 0 33.25V4.75Z" fill="#EA1B15"/>
<path d="M26.125 9.5H28.1658C28.3508 9.5 28.5001 9.64928 28.5001 9.83438V15.0972C28.5001 15.2823 28.3568 15.4315 28.1717 15.4375H26.4593C26.2743 15.4375 26.125 15.2882 26.125 15.1031V13.5635L12.9233 26.125H16.2907C16.4758 26.125 16.625 26.2743 16.625 26.4594V28.1657C16.625 28.3508 16.4758 28.5001 16.2907 28.5001H9.83428C9.64923 28.5001 9.5 28.3508 9.5 28.1657V26.125L24.4644 11.875H22.8968C22.7118 11.875 22.5625 11.7257 22.5625 11.5406V9.84035C22.5625 9.65525 22.7118 9.50597 22.8968 9.50597L26.125 9.5ZM14.25 11.875L19.8533 11.869C20.0383 11.869 20.1875 11.7198 20.1875 11.5347V9.83438C20.1875 9.64928 20.0383 9.5 19.8592 9.5H9.84622C9.66117 9.5 9.51194 9.64928 9.51194 9.83438V15.1031C9.51194 15.2882 9.66117 15.4375 9.84622 15.4375H11.5467C11.7317 15.4375 11.875 15.2882 11.875 15.1031V11.875H14.25ZM26.125 26.125H19.3343C19.1493 26.125 19 26.2743 19 26.4594V28.1657C19 28.3508 19.1493 28.5001 19.3343 28.5001H28.1658C28.3508 28.5001 28.5001 28.3508 28.5001 28.1657V22.8691C28.5001 22.684 28.3508 22.5347 28.1658 22.5347H26.4593C26.2743 22.5347 26.125 22.684 26.125 22.8691V26.125Z" fill="white"/>
</g>
<g clip-path="url(#clip2_8324_90422)">
<path d="M47.5 27.3639V25.1952L55.5419 17.6509H49.9012V19.1381H47.6298V15.585H58.5704V17.7536L50.5934 25.2547H56.4288V23.7458H58.7002V27.3639H47.5Z" fill="#000514"/>
<path d="M65.6013 27.6346C64.4223 27.6346 63.3894 27.3696 62.4916 26.845C61.5993 26.3204 60.8962 25.5903 60.3825 24.6655C59.8741 23.7407 59.6145 22.6699 59.6145 21.4639C59.6145 20.2579 59.8633 19.1871 60.3662 18.2623C60.8692 17.3375 61.5668 16.6074 62.4646 16.0828C63.3623 15.5582 64.3899 15.2932 65.5526 15.2932C66.7154 15.2932 67.7429 15.5582 68.6407 16.0828C69.533 16.6074 70.2361 17.3375 70.739 18.2623C71.242 19.1871 71.4907 20.2579 71.4907 21.4639C71.4907 22.6699 71.242 23.7407 70.739 24.6655C70.2361 25.5903 69.5438 26.3204 68.6569 26.845C67.77 27.3696 66.7532 27.6346 65.6067 27.6346H65.6013ZM65.6013 25.5849C66.3098 25.5849 66.9371 25.4064 67.4833 25.0549C68.035 24.7034 68.4622 24.2166 68.7651 23.6055C69.0733 22.9944 69.2247 22.2805 69.2247 21.4639C69.2247 20.6473 69.0733 19.9334 68.7651 19.3223C68.4568 18.7111 68.0241 18.2244 67.4563 17.8729C66.8884 17.5214 66.2557 17.3429 65.5472 17.3429C64.8388 17.3429 64.1898 17.5214 63.6382 17.8729C63.0865 18.2244 62.6593 18.7111 62.3402 19.3223C62.0265 19.9334 61.8697 20.6473 61.8697 21.4639C61.8697 22.2805 62.0265 22.9944 62.3402 23.6055C62.6539 24.2166 63.0919 24.7034 63.6598 25.0549C64.2276 25.4064 64.8712 25.5849 65.5905 25.5849H65.6013Z" fill="#000514"/>
<path d="M78.7212 27.6346C77.5422 27.6346 76.5093 27.3696 75.6115 26.845C74.7192 26.3204 74.0161 25.5903 73.5023 24.6655C72.994 23.7407 72.7344 22.6699 72.7344 21.4639C72.7344 20.2579 72.9831 19.1871 73.4861 18.2623C73.9891 17.3375 74.6867 16.6074 75.5845 16.0828C76.4822 15.5582 77.5098 15.2932 78.6725 15.2932C79.8353 15.2932 80.8628 15.5582 81.7605 16.0828C82.6529 16.6074 83.3559 17.3375 83.8589 18.2623C84.3619 19.1871 84.6106 20.2579 84.6106 21.4639C84.6106 22.6699 84.3619 23.7407 83.8589 24.6655C83.3559 25.5903 82.6637 26.3204 81.7768 26.845C80.8898 27.3696 79.8731 27.6346 78.7266 27.6346H78.7212ZM78.7212 25.5849C79.4296 25.5849 80.057 25.4064 80.6032 25.0549C81.1548 24.7034 81.5821 24.2166 81.8849 23.6055C82.1932 22.9944 82.3446 22.2805 82.3446 21.4639C82.3446 20.6473 82.1932 19.9334 81.8849 19.3223C81.5767 18.7111 81.144 18.2244 80.5762 17.8729C80.0083 17.5214 79.3756 17.3429 78.6671 17.3429C77.9586 17.3429 77.3097 17.5214 76.758 17.8729C76.2064 18.2244 75.7792 18.7111 75.4601 19.3223C75.1464 19.9334 74.9896 20.6473 74.9896 21.4639C74.9896 22.2805 75.1464 22.9944 75.4601 23.6055C75.7737 24.2166 76.2118 24.7034 76.7797 25.0549C77.3475 25.4064 77.9911 25.5849 78.7104 25.5849H78.7212Z" fill="#000514"/>
<path d="M103.344 16.5961C102.533 15.7254 101.424 15.2874 100.013 15.2874C99.0555 15.2874 98.2335 15.5253 97.5521 15.9958C96.8815 16.4555 96.3677 17.1207 96.0108 17.9806C95.8107 17.4344 95.5457 16.9693 95.1995 16.5961C94.3883 15.7254 93.2796 15.2874 91.8681 15.2874C90.9109 15.2874 90.0888 15.5253 89.4074 15.9958C88.9369 16.3203 88.5529 16.7475 88.2339 17.2667L88.1257 15.574H86.0273V27.3529H88.2663V21.2309C88.2663 20.0087 88.5313 19.0568 89.0667 18.3808C89.6021 17.7048 90.3484 17.3695 91.3057 17.3695C91.8735 17.3857 92.3711 17.5047 92.8037 17.721C93.2364 17.9427 93.5717 18.3321 93.8151 18.8892C94.0584 19.4462 94.1828 20.2574 94.1828 21.3282V27.3583H96.4218V21.2363C96.4218 20.0141 96.6868 19.0622 97.2222 18.3862C97.7576 17.7102 98.5039 17.3749 99.4611 17.3749C100.029 17.3911 100.521 17.5101 100.943 17.7264C101.365 17.9482 101.706 18.3375 101.954 18.8946C102.203 19.4516 102.333 20.2628 102.333 21.3336V27.3637H104.545V20.6252C104.561 18.8189 104.166 17.4831 103.355 16.6069L103.344 16.5961Z" fill="#000514"/>
<path d="M107.173 13.6811C106.73 13.6811 106.346 13.5135 106.021 13.1782C105.697 12.8429 105.529 12.4535 105.529 12.01C105.529 11.5666 105.692 11.161 106.021 10.8419C106.346 10.5228 106.73 10.366 107.173 10.366C107.617 10.366 108.022 10.5228 108.342 10.8419C108.661 11.161 108.817 11.5449 108.817 12.01C108.817 12.4751 108.661 12.8429 108.342 13.1782C108.022 13.5135 107.638 13.6811 107.173 13.6811ZM106.043 27.3529L106.092 15.574H108.304L108.282 27.3529H106.043Z" fill="#000514"/>
<path d="M119.266 16.5961C118.455 15.7254 117.346 15.2874 115.935 15.2874C114.977 15.2874 114.155 15.5253 113.474 15.9958C113.003 16.3203 112.619 16.7475 112.3 17.2667L112.192 15.574H110.094V27.3529H112.333V21.2309C112.333 20.0087 112.598 19.0568 113.133 18.3808C113.669 17.7048 114.415 17.3695 115.372 17.3695C115.94 17.3857 116.437 17.5047 116.87 17.721C117.303 17.9427 117.638 18.3321 117.881 18.8892C118.125 19.4462 118.249 20.2574 118.249 21.3282V27.3583H120.488V20.6198C120.488 18.8135 120.083 17.4776 119.277 16.6015L119.266 16.5961Z" fill="#000514"/>
<path d="M125.496 14.514C125.496 13.8056 125.62 13.2864 125.875 12.9457C126.123 12.6104 126.513 12.4373 127.027 12.4373C127.2 12.4373 127.405 12.4752 127.649 12.5455C127.892 12.6158 128.179 12.7293 128.508 12.8862L129.33 11.1664C128.892 10.9609 128.46 10.7986 128.032 10.6851C127.611 10.5661 127.216 10.5066 126.854 10.5066C125.642 10.5066 124.739 10.8257 124.144 11.4584C123.549 12.0966 123.246 13.0322 123.246 14.2706V15.5686H121.148V17.429H123.246V27.3475H125.485V17.429H128.736V15.5686H125.485V14.5086L125.496 14.514Z" fill="#000514"/>
<path d="M134.236 27.6346C133.057 27.6346 132.024 27.3696 131.126 26.845C130.234 26.3204 129.531 25.5903 129.017 24.6655C128.508 23.7407 128.249 22.6699 128.249 21.4639C128.249 20.2579 128.498 19.1871 129.001 18.2623C129.503 17.3375 130.201 16.6074 131.099 16.0828C131.997 15.5582 133.024 15.2932 134.187 15.2932C135.35 15.2932 136.377 15.5582 137.275 16.0828C138.167 16.6074 138.87 17.3375 139.373 18.2623C139.876 19.1871 140.125 20.2579 140.125 21.4639C140.125 22.6699 139.876 23.7407 139.373 24.6655C138.87 25.5903 138.178 26.3204 137.291 26.845C136.404 27.3696 135.388 27.6346 134.241 27.6346H134.236ZM134.236 25.5849C134.944 25.5849 135.571 25.4064 136.118 25.0549C136.669 24.7034 137.096 24.2166 137.399 23.6055C137.708 22.9944 137.859 22.2805 137.859 21.4639C137.859 20.6473 137.708 19.9334 137.399 19.3223C137.091 18.7111 136.658 18.2244 136.091 17.8729C135.523 17.5214 134.89 17.3429 134.181 17.3429C133.473 17.3429 132.824 17.5214 132.272 17.8729C131.721 18.2244 131.294 18.7111 130.974 19.3223C130.661 19.9334 130.504 20.6473 130.504 21.4639C130.504 22.2805 130.661 22.9944 130.974 23.6055C131.288 24.2166 131.726 24.7034 132.294 25.0549C132.862 25.4064 133.505 25.5849 134.225 25.5849H134.236Z" fill="#000514"/>
</g>
</g>
<defs>
<clipPath id="clip0_8324_90422">
<rect width="140.125" height="38" fill="white"/>
</clipPath>
<clipPath id="clip1_8324_90422">
<rect width="38" height="38" fill="white"/>
</clipPath>
<clipPath id="clip2_8324_90422">
<rect width="92.625" height="17.2682" fill="white" transform="translate(47.5 10.366)"/>
</clipPath>
</defs>
</svg>
